<svg width="64" height="64" viewBox="0 0 64 64" fill="none" xmlns="http://www.w3.org/2000/svg">
    <path d="M10.6667 37.3334C10.1621 37.3351 9.66734 37.1936 9.23994 36.9253C8.81253 36.657 8.47002 36.273 8.25219 35.8178C8.03437 35.3626 7.95018 34.8549 8.00939 34.3538C8.06861 33.8526 8.26881 33.3786 8.58673 32.9867L34.9867 5.78669C35.1848 5.55811 35.4546 5.40364 35.752 5.34865C36.0494 5.29365 36.3567 5.34139 36.6233 5.48404C36.89 5.62668 37.1003 5.85575 37.2196 6.13365C37.339 6.41155 37.3603 6.72176 37.2801 7.01336L32.1601 23.0667C32.0091 23.4708 31.9584 23.9054 32.0123 24.3334C32.0662 24.7613 32.2232 25.1698 32.4696 25.5238C32.7161 25.8778 33.0448 26.1667 33.4275 26.3658C33.8101 26.5648 34.2354 26.6681 34.6667 26.6667H53.3334C53.838 26.665 54.3328 26.8065 54.7602 27.0748C55.1876 27.343 55.5301 27.7271 55.7479 28.1823C55.9658 28.6375 56.0499 29.1451 55.9907 29.6463C55.9315 30.1474 55.7313 30.6215 55.4134 31.0134L29.0134 58.2134C28.8154 58.4419 28.5455 58.5964 28.2481 58.6514C27.9507 58.7064 27.6435 58.6587 27.3768 58.516C27.1101 58.3734 26.8998 58.1443 26.7805 57.8664C26.6612 57.5885 26.6399 57.2783 26.7201 56.9867L31.8401 40.9334C31.991 40.5293 32.0417 40.0946 31.9878 39.6667C31.9339 39.2387 31.777 38.8302 31.5305 38.4762C31.284 38.1222 30.9553 37.8333 30.5727 37.6343C30.19 37.4352 29.7647 37.332 29.3334 37.3334H10.6667Z" stroke="#155DFC" stroke-width="5.33333" stroke-linecap="round" stroke-linejoin="round"/>
</svg>
